<svg width="180" height="48" viewBox="0 0 180 48" fill="none" xmlns="http://www.w3.org/2000/svg">
  <defs>
    <linearGradient id="inkflowGradient" x1="8" y1="4" x2="172" y2="44" gradientUnits="userSpaceOnUse">
      <stop stop-color="#0EA5E9"/>
      <stop offset="1" stop-color="#22C55E"/>
    </linearGradient>
    <linearGradient id="inkflowGlow" x1="0" y1="0" x2="180" y2="48" gradientUnits="userSpaceOnUse">
      <stop stop-color="#0EA5E9" stop-opacity="0.35"/>
      <stop offset="1" stop-color="#22C55E" stop-opacity="0.35"/>
    </linearGradient>
  </defs>
  <rect x="2" y="2" width="176" height="44" rx="14" fill="#0B1220" stroke="url(#inkflowGradient)" stroke-width="2"/>
  <rect x="6" y="6" width="168" height="36" rx="12" fill="url(#inkflowGlow)" opacity="0.35"/>

  <!-- Quill mark -->
  <path d="M34 32.5C34 32.5 42.5 23.5 44.5 18C45.3 15.8 44.2 13.4 42 12.6C39.8 11.8 37.4 12.9 36.6 15.1C35.1 19.5 34 32.5 34 32.5Z" fill="url(#inkflowGradient)"/>
  <path d="M34 32.5C34 32.5 31 31 30 29.5C29.2 28.3 30.4 26.8 31.8 27.2C33 27.5 34 28.5 34 28.5C34 28.5 35 27 36.2 26.7C37.6 26.3 38.8 27.7 38 28.9C37 30.4 34 32.5 34 32.5Z" fill="#0B1220"/>

  <!-- Wordmark -->
  <path d="M60.5 31.5C57 31.5 54.3 29 54.3 25.3C54.3 21.5 57 19 60.5 19C63.1 19 65.3 20.4 66 22.4L63.9 23.2C63.5 22.2 62.3 21.5 60.9 21.5C58.7 21.5 57.1 23 57.1 25.3C57.1 27.6 58.7 29.1 60.9 29.1C62.4 29.1 63.6 28.3 64 27.2L66.1 28C65.4 30.1 63.2 31.5 60.5 31.5Z" fill="#E2E8F0"/>
  <path d="M70.7 31.2H68V19.3H70.7V31.2Z" fill="#E2E8F0"/>
  <path d="M75.2 31.2H72.6V19.3H75.1L80.2 26.5V19.3H82.8V31.2H80.5L75.2 23.5V31.2Z" fill="#E2E8F0"/>
  <path d="M93.9 31.2L92.9 28.3H88.2L87.2 31.2H84.5L89.2 19.3H92L96.7 31.2H93.9ZM90.6 22.2L89.1 26.4H92.1L90.6 22.2Z" fill="#E2E8F0"/>
  <path d="M104.9 31.2L101.8 26.9H100.8V31.2H98V19.3H103.1C105.8 19.3 107.5 20.9 107.5 23C107.5 24.7 106.5 26 104.9 26.5L108.2 31.2H104.9ZM100.8 21.5V24.9H103.1C104.3 24.9 105 24.3 105 23.2C105 22.2 104.3 21.5 103.1 21.5H100.8Z" fill="#E2E8F0"/>
  <path d="M118.9 31.2L115.8 26.9H114.8V31.2H112V19.3H117.1C119.8 19.3 121.5 20.9 121.5 23C121.5 24.7 120.5 26 118.9 26.5L122.2 31.2H118.9ZM114.8 21.5V24.9H117.1C118.3 24.9 119 24.3 119 23.2C119 22.2 118.3 21.5 117.1 21.5H114.8Z" fill="#E2E8F0"/>
  <path d="M131.6 31.5C128.2 31.5 125.6 29 125.6 25.3C125.6 21.6 128.2 19 131.6 19C135 19 137.6 21.6 137.6 25.3C137.6 29 135 31.5 131.6 31.5ZM131.6 29.1C133.6 29.1 135 27.5 135 25.3C135 23 133.6 21.5 131.6 21.5C129.6 21.5 128.2 23 128.2 25.3C128.2 27.6 129.6 29.1 131.6 29.1Z" fill="#E2E8F0"/>
</svg>
